<?xml version="1.0" encoding="utf-8"?>
<svg version="1.1" xmlns:xlink="http://www.w3.org/1999/xlink" width="12px" height="12px" viewBox="266 328  12 12" xmlns="http://www.w3.org/2000/svg">
  <path d="M 266.5 330  A 1.5 1.5 0 0 1 268 328.5 L 276 328.5  A 1.5 1.5 0 0 1 277.5 330 L 277.5 338  A 1.5 1.5 0 0 1 276 339.5 L 268 339.5  A 1.5 1.5 0 0 1 266.5 338 L 266.5 330  Z " fill-rule="nonzero" fill="#f0f0f0" stroke="none" />
  <path d="M 266.5 330  A 1.5 1.5 0 0 1 268 328.5 L 276 328.5  A 1.5 1.5 0 0 1 277.5 330 L 277.5 338  A 1.5 1.5 0 0 1 276 339.5 L 268 339.5  A 1.5 1.5 0 0 1 266.5 338 L 266.5 330  Z " stroke-width="1" stroke="#797979" fill="none" />
</svg>