<?xml version="1.0" encoding="utf-8"?>
<svg version="1.1" xmlns:xlink="http://www.w3.org/1999/xlink" width="12px" height="12px" viewBox="266 375  12 12" xmlns="http://www.w3.org/2000/svg">
  <path d="M 266.5 377  A 1.5 1.5 0 0 1 268 375.5 L 276 375.5  A 1.5 1.5 0 0 1 277.5 377 L 277.5 385  A 1.5 1.5 0 0 1 276 386.5 L 268 386.5  A 1.5 1.5 0 0 1 266.5 385 L 266.5 377  Z " fill-rule="nonzero" fill="#ffffff" stroke="none" />
  <path d="M 266.5 377  A 1.5 1.5 0 0 1 268 375.5 L 276 375.5  A 1.5 1.5 0 0 1 277.5 377 L 277.5 385  A 1.5 1.5 0 0 1 276 386.5 L 268 386.5  A 1.5 1.5 0 0 1 266.5 385 L 266.5 377  Z " stroke-width="1" stroke="#797979" fill="none" />
  <path d="M 268.571428571429 381  L 271.142857142857 383.571428571429  L 275.428571428571 377.571428571429  " stroke-width="2.57142857142857" stroke="#797979" fill="none" />
</svg>