<?xml version="1.0" encoding="utf-8"?>
<svg version="1.1" xmlns:xlink="http://www.w3.org/1999/xlink" width="140px" height="40px" xmlns="http://www.w3.org/2000/svg">
  <defs>
    <mask fill="white" id="clip4">
      <path d="M 0 37  L 0 3  C 0 1.31999999999999  1.32000000000005 0  3 0  L 137 0  C 138.68 0  140 1.31999999999999  140 3  L 140 37  C 140 38.68  138.68 40  137 40  L 88.8360655737705 40  L 3 40  C 1.32000000000005 40  0 38.68  0 37  Z " fill-rule="evenodd" />
    </mask>
  </defs>
  <g transform="matrix(1 0 0 1 -861 -228 )">
    <path d="M 0 37  L 0 3  C 0 1.31999999999999  1.32000000000005 0  3 0  L 137 0  C 138.68 0  140 1.31999999999999  140 3  L 140 37  C 140 38.68  138.68 40  137 40  L 88.8360655737705 40  L 3 40  C 1.32000000000005 40  0 38.68  0 37  Z " fill-rule="nonzero" fill="#ffffff" stroke="none" transform="matrix(1 0 0 1 861 228 )" />
    <path d="M 0 37  L 0 3  C 0 1.31999999999999  1.32000000000005 0  3 0  L 137 0  C 138.68 0  140 1.31999999999999  140 3  L 140 37  C 140 38.68  138.68 40  137 40  L 88.8360655737705 40  L 3 40  C 1.32000000000005 40  0 38.68  0 37  Z " stroke-width="2" stroke="#0079fe" fill="none" transform="matrix(1 0 0 1 861 228 )" mask="url(#clip4)" />
  </g>
</svg>