<?xml version="1.0" encoding="utf-8"?>
<svg version="1.1" xmlns:xlink="http://www.w3.org/1999/xlink" width="30px" height="30px" xmlns="http://www.w3.org/2000/svg">
  <defs>
    <mask fill="white" id="clip5">
      <path d="M 0 15  C 0 11.3646295709386  1.23618282076052 8.06639991117547  3.31945907080913 5.4944004121831  C 6.04986572925199 2.12345786080684  10.2353704290614 0  15 0  C 23.4 0  30 6.59999999999999  30 15  C 30 23.4  23.4 30  15 30  C 6.59999999999999 30  0 23.4  0 15  Z " fill-rule="evenodd" />
    </mask>
  </defs>
  <g transform="matrix(1 0 0 1 -390 -146 )">
    <path d="M 0 15  C 0 11.3646295709386  1.23618282076052 8.06639991117547  3.31945907080913 5.4944004121831  C 6.04986572925199 2.12345786080684  10.2353704290614 0  15 0  C 23.4 0  30 6.59999999999999  30 15  C 30 23.4  23.4 30  15 30  C 6.59999999999999 30  0 23.4  0 15  Z " fill-rule="nonzero" fill="#0079fe" stroke="none" transform="matrix(1 0 0 1 390 146 )" />
    <path d="M 0 15  C 0 11.3646295709386  1.23618282076052 8.06639991117547  3.31945907080913 5.4944004121831  C 6.04986572925199 2.12345786080684  10.2353704290614 0  15 0  C 23.4 0  30 6.59999999999999  30 15  C 30 23.4  23.4 30  15 30  C 6.59999999999999 30  0 23.4  0 15  Z " stroke-width="4" stroke="#0079fe" fill="none" transform="matrix(1 0 0 1 390 146 )" mask="url(#clip5)" />
  </g>
</svg>