<?xml version="1.0" encoding="utf-8"?>
<svg version="1.1" xmlns:xlink="http://www.w3.org/1999/xlink" width="12px" height="12px" viewBox="266 426  12 12" xmlns="http://www.w3.org/2000/svg">
  <path d="M 266.5 428  A 1.5 1.5 0 0 1 268 426.5 L 276 426.5  A 1.5 1.5 0 0 1 277.5 428 L 277.5 436  A 1.5 1.5 0 0 1 276 437.5 L 268 437.5  A 1.5 1.5 0 0 1 266.5 436 L 266.5 428  Z " fill-rule="nonzero" fill="#ffffff" stroke="none" />
  <path d="M 266.5 428  A 1.5 1.5 0 0 1 268 426.5 L 276 426.5  A 1.5 1.5 0 0 1 277.5 428 L 277.5 436  A 1.5 1.5 0 0 1 276 437.5 L 268 437.5  A 1.5 1.5 0 0 1 266.5 436 L 266.5 428  Z " stroke-width="1" stroke="#797979" fill="none" />
  <path d="M 268.571428571429 432  L 271.142857142857 434.571428571429  L 275.428571428571 428.571428571429  " stroke-width="2.57142857142857" stroke="#797979" fill="none" />
</svg>