<?xml version="1.0" encoding="utf-8"?>
<svg version="1.1" xmlns:xlink="http://www.w3.org/1999/xlink" width="12px" height="12px" viewBox="266 379  12 12" xmlns="http://www.w3.org/2000/svg">
  <path d="M 266.5 381  A 1.5 1.5 0 0 1 268 379.5 L 276 379.5  A 1.5 1.5 0 0 1 277.5 381 L 277.5 389  A 1.5 1.5 0 0 1 276 390.5 L 268 390.5  A 1.5 1.5 0 0 1 266.5 389 L 266.5 381  Z " fill-rule="nonzero" fill="#ffffff" stroke="none" />
  <path d="M 266.5 381  A 1.5 1.5 0 0 1 268 379.5 L 276 379.5  A 1.5 1.5 0 0 1 277.5 381 L 277.5 389  A 1.5 1.5 0 0 1 276 390.5 L 268 390.5  A 1.5 1.5 0 0 1 266.5 389 L 266.5 381  Z " stroke-width="1" stroke="#797979" fill="none" />
</svg>