<?xml version="1.0" encoding="utf-8"?>
<svg version="1.1" xmlns:xlink="http://www.w3.org/1999/xlink" width="12px" height="12px" viewBox="266 471  12 12" xmlns="http://www.w3.org/2000/svg">
  <path d="M 266.5 473  A 1.5 1.5 0 0 1 268 471.5 L 276 471.5  A 1.5 1.5 0 0 1 277.5 473 L 277.5 481  A 1.5 1.5 0 0 1 276 482.5 L 268 482.5  A 1.5 1.5 0 0 1 266.5 481 L 266.5 473  Z " fill-rule="nonzero" fill="#ffffff" stroke="none" />
  <path d="M 266.5 473  A 1.5 1.5 0 0 1 268 471.5 L 276 471.5  A 1.5 1.5 0 0 1 277.5 473 L 277.5 481  A 1.5 1.5 0 0 1 276 482.5 L 268 482.5  A 1.5 1.5 0 0 1 266.5 481 L 266.5 473  Z " stroke-width="1" stroke="#797979" fill="none" />
</svg>