<?xml version="1.0" encoding="utf-8"?>
<svg version="1.1" xmlns:xlink="http://www.w3.org/1999/xlink" width="12px" height="12px" viewBox="265 283  12 12" xmlns="http://www.w3.org/2000/svg">
  <path d="M 265.5 285  A 1.5 1.5 0 0 1 267 283.5 L 275 283.5  A 1.5 1.5 0 0 1 276.5 285 L 276.5 293  A 1.5 1.5 0 0 1 275 294.5 L 267 294.5  A 1.5 1.5 0 0 1 265.5 293 L 265.5 285  Z " fill-rule="nonzero" fill="#ffffff" stroke="none" />
  <path d="M 265.5 285  A 1.5 1.5 0 0 1 267 283.5 L 275 283.5  A 1.5 1.5 0 0 1 276.5 285 L 276.5 293  A 1.5 1.5 0 0 1 275 294.5 L 267 294.5  A 1.5 1.5 0 0 1 265.5 293 L 265.5 285  Z " stroke-width="1" stroke="#797979" fill="none" />
  <path d="M 267.571428571429 289  L 270.142857142857 291.571428571429  L 274.428571428571 285.571428571429  " stroke-width="2.57142857142857" stroke="#797979" fill="none" />
</svg>