<?xml version="1.0" encoding="utf-8"?>
<svg version="1.1" xmlns:xlink="http://www.w3.org/1999/xlink" width="12px" height="12px" viewBox="265 537  12 12" xmlns="http://www.w3.org/2000/svg">
  <path d="M 265.5 539  A 1.5 1.5 0 0 1 267 537.5 L 275 537.5  A 1.5 1.5 0 0 1 276.5 539 L 276.5 547  A 1.5 1.5 0 0 1 275 548.5 L 267 548.5  A 1.5 1.5 0 0 1 265.5 547 L 265.5 539  Z " fill-rule="nonzero" fill="#ffffff" stroke="none" />
  <path d="M 265.5 539  A 1.5 1.5 0 0 1 267 537.5 L 275 537.5  A 1.5 1.5 0 0 1 276.5 539 L 276.5 547  A 1.5 1.5 0 0 1 275 548.5 L 267 548.5  A 1.5 1.5 0 0 1 265.5 547 L 265.5 539  Z " stroke-width="1" stroke="#797979" fill="none" />
</svg>