<?xml version="1.0" encoding="utf-8"?>
<svg version="1.1" xmlns:xlink="http://www.w3.org/1999/xlink" width="12px" height="12px" viewBox="265 399  12 12" xmlns="http://www.w3.org/2000/svg">
  <path d="M 265.5 401  A 1.5 1.5 0 0 1 267 399.5 L 275 399.5  A 1.5 1.5 0 0 1 276.5 401 L 276.5 409  A 1.5 1.5 0 0 1 275 410.5 L 267 410.5  A 1.5 1.5 0 0 1 265.5 409 L 265.5 401  Z " fill-rule="nonzero" fill="#f0f0f0" stroke="none" />
  <path d="M 265.5 401  A 1.5 1.5 0 0 1 267 399.5 L 275 399.5  A 1.5 1.5 0 0 1 276.5 401 L 276.5 409  A 1.5 1.5 0 0 1 275 410.5 L 267 410.5  A 1.5 1.5 0 0 1 265.5 409 L 265.5 401  Z " stroke-width="1" stroke="#797979" fill="none" />
</svg>