<?xml version="1.0" encoding="utf-8"?>
<svg version="1.1" xmlns:xlink="http://www.w3.org/1999/xlink" width="30px" height="30px" xmlns="http://www.w3.org/2000/svg">
  <g transform="matrix(1 0 0 1 -343 -188 )">
    <path d="M 358 189  C 365.84 189  372 195.16  372 203  C 372 210.84  365.84 217  358 217  C 350.16 217  344 210.84  344 203  C 344 195.16  350.16 189  358 189  Z " fill-rule="nonzero" fill="#0079fe" stroke="none" />
    <path d="M 358 189  C 365.84 189  372 195.16  372 203  C 372 210.84  365.84 217  358 217  C 350.16 217  344 210.84  344 203  C 344 195.16  350.16 189  358 189  Z " stroke-width="2" stroke="#0079fe" fill="none" />
  </g>
</svg>