<?xml version="1.0" encoding="utf-8"?>
<svg version="1.1" xmlns:xlink="http://www.w3.org/1999/xlink" width="34px" height="26px" xmlns="http://www.w3.org/2000/svg">
  <g transform="matrix(1 0 0 1 -971 -202 )">
    <path d="M 2.61538461538462 19.9642857142857  L 2.61538461538462 24.1428571428571  L 8.5 24.1428571428571  L 8.5 19.9642857142857  L 2.61538461538462 19.9642857142857  Z M 9.80769230769231 19.9642857142857  L 9.80769230769231 24.1428571428571  L 16.3461538461538 24.1428571428571  L 16.3461538461538 19.9642857142857  L 9.80769230769231 19.9642857142857  Z M 2.61538461538462 14.3928571428571  L 2.61538461538462 19.0357142857143  L 8.5 19.0357142857143  L 8.5 14.3928571428571  L 2.61538461538462 14.3928571428571  Z M 9.80769230769231 14.3928571428571  L 9.80769230769231 19.0357142857143  L 16.3461538461538 19.0357142857143  L 16.3461538461538 14.3928571428571  L 9.80769230769231 14.3928571428571  Z M 2.61538461538462 9.28571428571429  L 2.61538461538462 13.4642857142857  L 8.5 13.4642857142857  L 8.5 9.28571428571429  L 2.61538461538462 9.28571428571429  Z M 17.6538461538462 19.9642857142857  L 17.6538461538462 24.1428571428571  L 24.1923076923077 24.1428571428571  L 24.1923076923077 19.9642857142857  L 17.6538461538462 19.9642857142857  Z M 9.80769230769231 9.28571428571429  L 9.80769230769231 13.4642857142857  L 16.3461538461538 13.4642857142857  L 16.3461538461538 9.28571428571429  L 9.80769230769231 9.28571428571429  Z M 25.5 19.9642857142857  L 25.5 24.1428571428571  L 31.3846153846154 24.1428571428571  L 31.3846153846154 19.9642857142857  L 25.5 19.9642857142857  Z M 17.6538461538462 14.3928571428571  L 17.6538461538462 19.0357142857143  L 24.1923076923077 19.0357142857143  L 24.1923076923077 14.3928571428571  L 17.6538461538462 14.3928571428571  Z M 10.2674278846154 6.82645089285712  C 10.3968349358973 6.73456101190475  10.4615384615385 6.62574404761904  10.4615384615385 6.5  C 10.4615384615385 6.37425595238096  10.4615384615385 2.32142857142859  10.4615384615385 2.32142857142859  C 10.4615384615385 2.19568452380955  10.3968349358973 2.08686755952379  10.2674278846154 1.99497767857141  C 10.1380208333334 1.90308779761904  9.98477564102574 1.85714285714288  9.80769230769231 1.85714285714288  L 8.5 1.85714285714288  C 8.32291666666657 1.85714285714288  8.16967147435888 1.90308779761904  8.04026442307692 1.99497767857141  C 7.91085737179497 2.08686755952379  7.84615384615385 2.19568452380955  7.84615384615385 2.32142857142859  L 7.84615384615385 6.5  C 7.84615384615385 6.62574404761904  7.91085737179497 6.73456101190475  8.04026442307692 6.82645089285712  C 8.16967147435888 6.91834077380955  8.32291666666657 6.96428571428571  8.5 6.96428571428571  L 9.80769230769231 6.96428571428571  C 9.98477564102574 6.96428571428571  10.1380208333334 6.91834077380955  10.2674278846154 6.82645089285712  Z M 25.5 14.3928571428571  L 25.5 19.0357142857143  L 31.3846153846154 19.0357142857143  L 31.3846153846154 14.3928571428571  L 25.5 14.3928571428571  Z M 17.6538461538462 9.28571428571429  L 17.6538461538462 13.4642857142857  L 24.1923076923077 13.4642857142857  L 24.1923076923077 9.28571428571429  L 17.6538461538462 9.28571428571429  Z M 25.5 9.28571428571429  L 25.5 13.4642857142857  L 31.3846153846154 13.4642857142857  L 31.3846153846154 9.28571428571429  L 25.5 9.28571428571429  Z M 25.9597355769231 6.82645089285712  C 26.089142628205 6.73456101190475  26.1538461538462 6.62574404761904  26.1538461538462 6.5  L 26.1538461538462 2.32142857142859  C 26.1538461538462 2.19568452380955  26.089142628205 2.08686755952379  25.9597355769231 1.99497767857141  C 25.8303285256411 1.90308779761904  25.6770833333334 1.85714285714288  25.5 1.85714285714288  L 24.1923076923077 1.85714285714288  C 24.0152243589743 1.85714285714288  23.8619791666666 1.90308779761904  23.7325721153846 1.99497767857141  C 23.6031650641027 2.08686755952379  23.5384615384615 2.19568452380955  23.5384615384615 2.32142857142859  L 23.5384615384615 6.5  C 23.5384615384615 6.62574404761904  23.6031650641027 6.73456101190475  23.7325721153846 6.82645089285712  C 23.8619791666666 6.91834077380955  24.0152243589743 6.96428571428571  24.1923076923077 6.96428571428571  L 25.5 6.96428571428571  C 25.6770833333334 6.96428571428571  25.8303285256411 6.91834077380955  25.9597355769231 6.82645089285712  Z M 33.2235576923077 4.265625  C 33.7411858974358 4.63318452380955  34 5.06845238095237  34 5.57142857142859  L 34 24.1428571428571  C 34 24.6458333333333  33.7411858974358 25.0811011904762  33.2235576923077 25.4486607142857  C 32.7059294871796 25.8162202380953  32.0929487179488 26  31.3846153846154 26  L 2.61538461538462 26  C 1.90705128205118 26  1.29407051282041 25.8162202380953  0.776442307692308 25.4486607142857  C 0.258814102564202 25.0811011904762  0 24.6458333333333  0 24.1428571428571  L 0 5.57142857142859  C 0 5.06845238095237  0.258814102564202 4.63318452380955  0.776442307692308 4.265625  C 1.29407051282041 3.89806547619046  1.90705128205118 3.71428571428571  2.61538461538462 3.71428571428571  L 5.23076923076923 3.71428571428571  L 5.23076923076923 2.32142857142859  C 5.23076923076923 1.68303571428571  5.55088141025651 1.13653273809525  6.19110576923077 0.681919642857122  C 6.83133012820503 0.227306547619041  7.60096153846154 0  8.5 0  L 9.80769230769231 0  C 10.7067307692308 0  11.4763621794873 0.227306547619041  12.1165865384615 0.681919642857122  C 12.7568108974358 1.13653273809525  13.0769230769231 1.68303571428571  13.0769230769231 2.32142857142859  L 13.0769230769231 3.71428571428571  L 20.9230769230769 3.71428571428571  L 20.9230769230769 2.32142857142859  C 20.9230769230769 1.68303571428571  21.2431891025642 1.13653273809525  21.8834134615385 0.681919642857122  C 22.5236378205127 0.227306547619041  23.2932692307692 0  24.1923076923077 0  L 25.5 0  C 26.3990384615385 0  27.168669871795 0.227306547619041  27.8088942307692 0.681919642857122  C 28.4491185897435 1.13653273809525  28.7692307692308 1.68303571428571  28.7692307692308 2.32142857142859  L 28.7692307692308 3.71428571428571  L 31.3846153846154 3.71428571428571  C 32.0929487179488 3.71428571428571  32.7059294871796 3.89806547619046  33.2235576923077 4.265625  Z " fill-rule="nonzero" fill="#8c8c8c" stroke="none" transform="matrix(1 0 0 1 971 202 )" />
  </g>
</svg>