<?xml version="1.0" encoding="utf-8"?>
<svg version="1.1" xmlns:xlink="http://www.w3.org/1999/xlink" width="30px" height="30px" xmlns="http://www.w3.org/2000/svg">
  <g transform="matrix(1 0 0 1 -390 -147 )">
    <path d="M 405 148  C 412.84 148  419 154.16  419 162  C 419 169.84  412.84 176  405 176  C 397.16 176  391 169.84  391 162  C 391 154.16  397.16 148  405 148  Z " fill-rule="nonzero" fill="#ffffff" stroke="none" />
    <path d="M 405 148  C 412.84 148  419 154.16  419 162  C 419 169.84  412.84 176  405 176  C 397.16 176  391 169.84  391 162  C 391 154.16  397.16 148  405 148  Z " stroke-width="2" stroke="#0079fe" fill="none" />
  </g>
</svg>